# xmcd CD database file
#
# Track frame offsets:
#	150
#	15434
#	37201
#	68114
#	104072
#	134469
#	159018
#	179456
#	210777
#	234461
#	267573
#
# Disc length: 4060 seconds
#
# Revision: 0
# Processed by: cddbd v1.5.2PL0 Copyright (c) Steve Scherf et al.
# Submitted via: CDex 1.70beta2
#
DISCID=940fda0b
DTITLE=Chaz DePaolo - One Night Live In Iona
DYEAR=2014
DGENRE=Blues
TTITLE0=Chicago 101
TTITLE1=Down So Long
TTITLE2=I Want to Get Funky
TTITLE3=Woman in a Black Dress
TTITLE4=No More Doggin'
TTITLE5=You Know My Baby
TTITLE6=Stormin'
TTITLE7=Look at That Girl
TTITLE8=Cadillac Baby
TTITLE9=Voodoo Style Chazy
TTITLE10=Slo Bite
EXTD=YEAR: 2014
EXTT0=
EXTT1=
EXTT2=
EXTT3=
EXTT4=
EXTT5=
EXTT6=
EXTT7=
EXTT8=
EXTT9=
EXTT10=
PLAYORDER=
